<svg width="213" height="151" viewBox="0 0 213 151" fill="none" xmlns="http://www.w3.org/2000/svg">
<g clip-path="url(#clip0)">
<path d="M198.784 81.6597L197.962 81.1904L96.8075 20.7669C94.8102 19.5936 92.343 20.2976 91.1682 22.1748C89.9934 24.1694 90.6983 26.6333 92.578 27.8065L117.837 42.8244C119.482 43.763 120.069 45.9922 119.13 47.6348C118.19 49.2774 115.958 49.864 114.313 48.9254L54.3955 13.4926C52.7507 12.554 50.6359 13.0233 49.6961 14.6659C48.7562 16.3085 49.2261 18.4204 50.8709 19.359L131.583 67.1111C132.64 67.6978 132.875 68.9884 132.288 70.0443C131.7 71.1003 130.408 71.3349 129.351 70.7483L10.6911 0.46933C8.81134 -0.586614 6.57912 2.13534e-05 5.40428 1.87726C4.34691 3.63716 4.93434 5.9837 6.81409 7.03965L105.971 65.7032C107.029 66.2898 107.264 67.5804 106.676 68.6364L106.559 68.871C105.971 69.927 104.679 70.1616 103.622 69.575L22.792 21.7055C21.4997 21.0016 19.9724 21.3536 19.2675 22.6442C18.5626 23.9348 18.915 25.46 20.2074 26.164L136.517 94.9176C137.457 95.5043 137.81 96.5602 137.457 97.4988C137.457 97.6162 137.34 97.7335 137.34 97.8508C136.87 99.0241 135.46 99.6107 134.285 98.9068L29.7236 37.0754C26.7865 35.3155 23.1445 36.3714 21.3822 39.1873C19.6199 42.1205 20.6773 45.7576 23.4969 47.5175L119.482 104.421C120.539 105.008 120.774 106.298 120.187 107.354L117.602 111.578C117.015 112.634 115.723 112.869 114.665 112.282L6.57912 48.3388C4.4644 47.1655 1.87973 47.7522 0.587397 49.864C-0.587451 51.9759 -2.69655e-05 54.5571 2.1147 55.8477L152.143 144.664C152.613 145.016 153.2 145.368 153.788 145.72C172.468 156.749 196.435 150.648 207.478 131.993C217.464 114.981 213.47 93.7444 198.784 81.6597Z" fill="url(#paint0_linear)"/>
<path d="M183.276 110.64C185.508 107.002 179.752 104.304 177.989 103.248L174.23 109.349C175.992 110.405 181.161 114.042 183.276 110.64Z" fill="#F9ED32"/>
<path d="M172.35 112.399L168.238 119.087C170.353 120.378 176.58 124.719 178.929 120.964C181.396 116.975 174.465 113.69 172.35 112.399Z" fill="#F9ED32"/>
<path d="M192.558 85.5315C177.402 76.2626 157.547 81.073 148.383 96.2082C139.102 111.343 143.919 131.054 159.074 140.323C174.23 149.592 193.967 144.782 203.249 129.646C212.413 114.511 207.713 94.683 192.558 85.5315ZM184.569 125.305C181.162 129.881 176.815 128.943 171.41 126.127L168.356 131.172L165.301 129.294L168.356 124.249C167.533 123.78 166.711 123.311 165.889 122.724L162.834 127.769L159.779 125.892L162.834 120.847C162.129 120.378 161.424 119.908 160.602 119.439L156.607 116.975L159.427 113.69L161.659 115.098C162.481 115.567 163.186 115.098 163.421 114.746L168.356 106.768C168.473 106.885 168.591 106.885 168.708 107.002C168.591 106.885 168.473 106.885 168.356 106.768L171.88 101.019C172.115 100.315 172.233 99.3761 170.94 98.5548C171.058 98.5548 168.708 97.1469 168.708 97.1469L170.705 93.8617L174.935 96.4429C175.522 96.7949 176.227 97.2642 176.932 97.6162L179.987 92.5711L183.041 94.4483L179.987 99.3761C180.809 99.8454 181.631 100.315 182.454 100.784L185.391 95.8563L188.446 97.7335L185.391 102.779C189.151 105.594 191.5 108.645 189.62 112.517C188.211 115.333 186.213 116.271 183.864 116.037C186.566 118.735 187.388 121.668 184.569 125.305Z" fill="#F9ED32"/>
</g>
<defs>
<linearGradient id="paint0_linear" x1="-4.61918" y1="-84.4252" x2="180.668" y2="184.674" gradientUnits="userSpaceOnUse">
<stop stop-color="#FFF33B"/>
<stop offset="0.0401054" stop-color="#FEE72E"/>
<stop offset="0.1171" stop-color="#FED51B"/>
<stop offset="0.1964" stop-color="#FDCA10"/>
<stop offset="0.2809" stop-color="#FDC70C"/>
<stop offset="0.6685" stop-color="#F3903F"/>
<stop offset="0.9574" stop-color="#EF4136"/>
</linearGradient>
<clipPath id="clip0">
<rect width="213" height="151" fill="white"/>
</clipPath>
</defs>
</svg>
